<svg width="18" height="14" viewBox="0 0 18 14" fill="none" xmlns="http://www.w3.org/2000/svg">
<path d="M17.5236 7.89094C17.7111 7.70341 17.8164 7.4491 17.8164 7.18394C17.8164 6.91877 17.7111 6.66446 17.5236 6.47694L11.8666 0.819937C11.7744 0.724426 11.664 0.648244 11.542 0.595835C11.42 0.543426 11.2888 0.51584 11.156 0.514686C11.0232 0.513532 10.8916 0.538834 10.7687 0.589115C10.6458 0.639396 10.5341 0.713649 10.4402 0.807542C10.3463 0.901434 10.2721 1.01309 10.2218 1.13598C10.1715 1.25888 10.1462 1.39056 10.1474 1.52334C10.1485 1.65612 10.1761 1.78734 10.2285 1.90934C10.2809 2.03134 10.3571 2.14169 10.4526 2.23394L14.4026 6.18394L1.15962 6.18394C0.894404 6.18394 0.640049 6.28929 0.452512 6.47683C0.264976 6.66437 0.15962 6.91872 0.15962 7.18394C0.15962 7.44915 0.264976 7.70351 0.452512 7.89104C0.640049 8.07858 0.894403 8.18394 1.15962 8.18394L14.4026 8.18394L10.4526 12.1339C10.2705 12.3225 10.1697 12.5751 10.1719 12.8373C10.1742 13.0995 10.2794 13.3503 10.4648 13.5358C10.6502 13.7212 10.901 13.8263 11.1632 13.8286C11.4254 13.8309 11.678 13.7301 11.8666 13.5479L17.5236 7.89094Z" fill="white"/>
</svg>
